<svg width="80" height="80" xmlns="http://www.w3.org/2000/svg">
  <defs>
    <linearGradient id="supportGrad" x1="0%" y1="0%" x2="100%" y2="100%">
      <stop offset="0%" style="stop-color:#e8f4f8;stop-opacity:1" />
      <stop offset="100%" style="stop-color:#4a90a4;stop-opacity:0.8" />
    </linearGradient>
  </defs>
  <circle cx="40" cy="40" r="40" fill="url(#supportGrad)"/>
  
  <!-- 支え合う人々 -->
  <g fill="#4a90a4" opacity="0.7">
    <!-- 中央の人（利用者） -->
    <circle cx="40" cy="35" r="8"/>
    <ellipse cx="40" cy="50" rx="10" ry="15"/>
    
    <!-- 左の支援者 -->
    <circle cx="25" cy="40" r="6"/>
    <ellipse cx="25" cy="52" rx="8" ry="12"/>
    
    <!-- 右の支援者 -->
    <circle cx="55" cy="40" r="6"/>
    <ellipse cx="55" cy="52" rx="8" ry="12"/>
  </g>
  
  <!-- 支え合いを表す手 -->
  <g fill="#4a90a4" opacity="0.5">
    <ellipse cx="32" cy="45" rx="4" ry="2"/>
    <ellipse cx="48" cy="45" rx="4" ry="2"/>
  </g>
  
  <!-- ハート -->
  <g fill="#4a90a4" opacity="0.6">
    <path d="M40 25 C38 23, 35 23, 35 20 C35 18, 37 16, 39 18 C39.5 18.5, 40 20, 40 20 C40 20, 40.5 18.5, 41 18 C43 16, 45 18, 45 20 C45 23, 42 23, 40 25 Z"/>
  </g>
</svg>
